<?xml version="1.0" encoding="UTF-8"?>
<svg version="1.1" xmlns="http://www.w3.org/2000/svg" width="7999" height="3883">
<path d="M0 0 C164.0615625 -0.0309375 164.0615625 -0.0309375 331.4375 -0.0625 C365.97978271 -0.071604 400.52206543 -0.08070801 436.11108398 -0.09008789 C478.27355957 -0.09460449 478.27355957 -0.09460449 498.00819397 -0.09544373 C512.70596116 -0.09643713 527.40372373 -0.10074448 542.10148962 -0.10667343 C557.10736827 -0.11264449 572.11324403 -0.11483248 587.11912382 -0.11344495 C596.02785508 -0.11273052 604.93657551 -0.11468649 613.84530475 -0.1208076 C619.74572259 -0.12458452 625.64613331 -0.12465117 631.54655165 -0.12183534 C634.89555381 -0.120339 638.24451875 -0.12089182 641.59352124 -0.12488258 C663.82971276 -0.14980337 686.03273615 0.29449506 708.1875 2.3125 C709.26212494 2.40911926 709.26212494 2.40911926 710.35845947 2.50769043 C732.45242626 4.52414291 753.58963256 9.24319008 775 15 C776.01239746 15.27183105 777.02479492 15.54366211 778.06787109 15.82373047 C799.16120368 21.59831758 818.955855 30.20500543 838.375 40.1875 C839.46135742 40.7451001 840.54771484 41.3027002 841.66699219 41.87719727 C849.11558266 45.792585 856.08274426 50.21440133 863 55 C863.67450195 55.45995361 864.34900391 55.91990723 865.04394531 56.39379883 C873.23033998 62.00551472 880.90790168 68.05227684 888.37866211 74.58300781 C889.53943768 75.59748476 890.7048577 76.60665714 891.87329102 77.61230469 C904.8608523 88.84290271 916.41191554 100.95864778 926.45263672 114.88916016 C927.96852646 116.95706528 929.53751138 118.97031181 931.12890625 120.98046875 C959.02561821 156.86484762 972.70257678 202.44102049 978 247 C978.17354004 248.41877441 978.17354004 248.41877441 978.35058594 249.86621094 C986.9150894 323.08382069 973.4179455 402.91084603 927.421875 462.02832031 C914.1271032 478.82879682 899.9688848 494.82304476 883 508 C881.99453125 508.79921875 880.9890625 509.5984375 879.953125 510.421875 C855.76786216 529.51883886 827.1580465 546.97091525 797.57421875 555.91015625 C792.52214353 557.45062509 787.58140035 559.28438772 782.63085938 561.12255859 C779.17759653 562.37103327 776.72174054 563 773 563 C779.62597726 574.3222904 786.50789527 585.40224453 793.8515625 596.2734375 C798.07350053 602.54576486 802.06124415 608.9244396 805.95727539 615.40283203 C809.16210577 620.70328661 812.53375012 625.86724113 816 631 C819.950503 636.84983196 823.73701804 642.76342149 827.375 648.8125 C831.4015974 655.50393008 835.63551485 662.02416266 840 668.5 C844.84664626 675.69124747 849.48466269 682.96419162 853.95263672 690.39575195 C857.6720136 696.54892176 861.64219946 702.51053066 865.66503906 708.46826172 C868.7140877 713.00626573 871.61165089 717.59574894 874.375 722.3125 C877.98473368 728.46841492 881.88735049 734.39527358 885.875 740.3125 C890.85752826 747.70601535 895.63230808 755.184391 900.2355957 762.8190918 C903.34455265 767.96528989 906.60859467 772.97819477 909.98046875 777.95703125 C912.7910505 782.19193102 915.45394305 786.51419607 918.12670898 790.83691406 C921.59648173 796.42125761 925.22523759 801.88832791 928.95263672 807.30395508 C932 811.78656382 932 811.78656382 932 814 C910.24300023 814.56214992 888.4872066 814.98457183 866.72440338 815.24349213 C856.61766486 815.36694773 846.51545231 815.53502254 836.41162109 815.81054688 C827.59837769 816.05076195 818.78841135 816.20481565 809.97198534 816.25812387 C805.3071229 816.28927016 800.65162822 816.36165124 795.98979187 816.53752136 C767.75296588 817.56198474 767.75296588 817.56198474 759.902771 811.67886353 C754.74755391 806.10235642 751.36769756 799.87846803 748.33828735 792.95863342 C746.38274742 788.63540209 743.8699734 784.7345816 741.3125 780.75 C740.43978422 779.30984422 739.57076501 777.86743561 738.70703125 776.421875 C735.22434017 770.67717671 731.51955376 765.07864223 727.83520508 759.4621582 C724.27664984 754.01808014 720.85010982 748.51182287 717.5 742.9375 C713.1091249 735.63801458 708.40337675 728.59715432 703.50195312 721.63061523 C701.02101004 718.07924015 698.69242972 714.54387076 696.6328125 710.73046875 C693.69400062 705.30465353 690.28355956 700.20807129 686.8737793 695.06958008 C681.94122902 687.63164146 677.0169026 680.20007412 672.5 672.5 C668.0882868 664.98978785 663.28547946 657.74461786 658.49526978 650.47241211 C653.47823837 642.85152222 648.59690324 635.17074213 643.89550781 627.35107422 C640.23190053 621.2920314 636.31369449 615.42383169 632.35180664 609.55688477 C628.39388653 603.66694541 624.71182549 597.65377186 621.1328125 591.52734375 C620.78064985 590.97091295 620.42848721 590.41448214 620.06565297 589.8411898 C619 588 619 588 618.1278733 585.72616678 C616.74613293 582.76241832 615.5459567 581.08345649 613 579 C606.88114996 577.58944882 600.80054183 577.79953944 594.54934692 577.87974548 C592.617867 577.87169089 590.68640018 577.85968675 588.75496662 577.84406859 C583.44346376 577.81257252 578.13346535 577.8372096 572.82203007 577.87086642 C567.09604129 577.89736813 561.37025727 577.87202495 555.64427185 577.85293579 C545.72239739 577.82697429 535.80098296 577.83395783 525.87912369 577.86323357 C511.53382486 577.90551374 497.18888906 577.89823927 482.84355675 577.87881822 C459.57011097 577.84865818 436.29686872 577.85857185 413.0234375 577.89379883 C390.41370639 577.92792584 367.80409227 577.94302068 345.19433594 577.93286133 C343.77255217 577.93224912 342.35076841 577.93163748 340.92898464 577.9310264 C329.92111189 577.92619826 318.91323983 577.92015853 307.90536785 577.91382658 C253.93677965 577.88306466 199.96869389 577.94830189 146 578 C146 655.88 146 733.76 146 814 C97.82 814 49.64 814 0 814 C0 545.38 0 276.76 0 0 Z M146 118 C146 230.86 146 343.72 146 460 C230.38476364 460.0583172 230.38476364 460.0583172 314.76953125 460.09765625 C325.45078723 460.10131649 336.13204318 460.10507038 346.81329904 460.10905199 C348.26178896 460.10959169 349.71027887 460.11012843 351.15876879 460.11066218 C374.17110212 460.11916635 397.1834255 460.13415154 420.19575285 460.15259444 C443.8853541 460.17154525 467.57494986 460.18379059 491.26455856 460.18782998 C494.62547288 460.18840613 497.98638719 460.18905739 501.34730148 460.18975449 C502.00865164 460.18988933 502.6700018 460.19002418 503.35139287 460.19016311 C514.56259928 460.1926527 525.77378692 460.20325212 536.98498587 460.21583293 C547.00614283 460.22649772 557.02728524 460.22957944 567.04844745 460.22700275 C572.80898257 460.22573604 578.56946815 460.22751873 584.3299942 460.23841095 C610.95382536 460.28619411 637.43276554 459.7950632 664 458 C664.76905577 457.94843944 665.53811153 457.89687887 666.33047202 457.84375587 C668.70369197 457.68380229 671.07673226 457.52145186 673.44970131 457.35782051 C674.16309737 457.30895258 674.87649343 457.26008464 675.61150756 457.20973586 C691.84106547 456.06854992 707.38923619 453.70876311 723 449 C724.07185547 448.67757324 725.14371094 448.35514648 726.24804688 448.02294922 C748.47248687 441.16987043 767.96832562 431.73128401 786 417 C786.80695313 416.36449219 787.61390625 415.72898437 788.4453125 415.07421875 C794.11474411 410.41639161 798.48984853 404.75175204 803 399 C803.82886719 397.99839844 804.65773437 396.99679687 805.51171875 395.96484375 C835.88050523 358.83709732 837.95176637 304.24130619 833.74609375 258.58984375 C830.13731665 224.32923756 818.68814633 195.08843084 795 170 C794.14277344 169.05511719 793.28554688 168.11023437 792.40234375 167.13671875 C771.95383063 145.14370174 741.84447447 133.24053535 713 127 C712.09008301 126.79632812 711.18016602 126.59265625 710.24267578 126.3828125 C695.16218904 123.03214072 680.40050117 120.98215715 665 120 C663.75365021 119.91784626 662.50730041 119.83569252 661.22318244 119.75104928 C634.78052595 118.0298877 608.41637383 117.71788445 581.92432833 117.76786876 C576.04900447 117.77666716 570.17368372 117.77357177 564.2983551 117.77206421 C554.16656548 117.7710255 544.034802 117.77719449 533.90301895 117.78853989 C523.30038468 117.80040467 512.69776026 117.8080882 502.09511948 117.81024551 C501.09878843 117.81045173 501.09878843 117.81045173 500.08232949 117.81066212 C496.70780833 117.81133897 493.33328715 117.81194167 489.95876597 117.81251587 C466.18181348 117.81669427 442.40487456 117.83010562 418.62792969 117.84912109 C395.55794341 117.86754962 372.48796091 117.88165353 349.41796875 117.89013672 C347.96217577 117.890678 346.50638278 117.89121941 345.0505898 117.89176095 C333.77587548 117.89593327 322.50116107 117.89983431 311.22644663 117.90367007 C256.15095167 117.92247008 201.07549154 117.96272246 146 118 Z " fill="#BDC9C1" transform="translate(5789,1595)"/>
<path d="M0 0 C109.126875 -0.04125 218.25375 -0.0825 330.6875 -0.125 C365.12053467 -0.14320801 399.55356934 -0.16141602 435.0300293 -0.18017578 C477.13830566 -0.18920898 477.13830566 -0.18920898 496.86286926 -0.19088745 C511.51572363 -0.19286979 526.16855934 -0.20146769 540.82140849 -0.21334685 C555.80020281 -0.22532462 570.7789855 -0.22965689 585.75778442 -0.2268899 C593.87087919 -0.22558991 601.98394195 -0.22728252 610.09703004 -0.23843026 C641.11500986 -0.2794581 672.04657431 -0.26248646 703 2 C705.97374554 2.19437552 708.94771732 2.38457264 711.9218666 2.57265174 C743.13594053 4.8292602 775.96970057 13.23375173 804.79541016 25.10351562 C806.83525364 25.9330068 808.88495647 26.71808389 810.94921875 27.484375 C821.44208053 31.45404428 831.17488074 36.61807367 841 42 C841.6276123 42.33757324 842.25522461 42.67514648 842.90185547 43.02294922 C860.99611943 52.75902598 877.38263791 64.92360692 892.53125 78.75390625 C894.18337465 80.25702599 895.85030887 81.74402026 897.53125 83.21484375 C903.49408691 88.45072986 908.80923111 94.00420072 914 100 C914.98252087 101.10856244 915.96562505 102.21660809 916.94921875 103.32421875 C923.29429176 110.5242448 928.88596515 117.85890775 934 126 C934.95710657 127.48256352 935.91553995 128.96427098 936.875 130.4453125 C945.70655911 144.15003209 953.46600545 157.60698132 959 173 C959.53477279 174.38657263 960.07272504 175.77192179 960.61328125 177.15625 C968.46716529 197.47668664 974.1380955 218.39206132 977 240 C977.11714355 240.87769043 977.23428711 241.75538086 977.35498047 242.65966797 C984.21276902 297.9397614 979.31699111 356.38351369 958 408 C957.67241699 408.79422363 957.34483398 409.58844727 957.00732422 410.40673828 C947.2423293 433.79504449 933.9264016 455.10961898 917 474 C916.20722656 474.89074219 915.41445312 475.78148438 914.59765625 476.69921875 C913.11083715 478.35886469 911.61765823 480.0128423 910.1171875 481.66015625 C908.70984475 483.21550368 907.31896313 484.78591137 905.9453125 486.37109375 C901.60366619 491.38003589 897.06388684 495.73567424 892 500 C890.95676375 500.91487996 889.91523372 501.83170755 888.875 502.75 C876.14710167 513.92947018 862.51263142 523.28794194 848 532 C847.10410156 532.54060059 846.20820313 533.08120117 845.28515625 533.63818359 C827.94939696 543.94478098 809.54309497 551.79469972 790.5 558.3125 C789.80024048 558.55319214 789.10048096 558.79388428 788.3795166 559.04187012 C776.79346302 563 776.79346302 563 772 563 C772.39791748 563.589021 772.79583496 564.17804199 773.20581055 564.78491211 C775.03682081 567.49991338 776.86218161 570.2186691 778.6875 572.9375 C779.31333984 573.86369141 779.93917969 574.78988281 780.58398438 575.74414062 C783.3433465 579.86151343 786.03857694 583.9529102 788.38671875 588.3203125 C791.52519575 594.11873409 795.22499897 599.55593493 798.86837769 605.04379272 C805.16145502 614.52734732 811.35073865 624.04671271 817.20947266 633.80639648 C820.79728557 639.75189509 824.64011855 645.50530597 828.52563477 651.25927734 C831.95415601 656.36196116 835.2069167 661.54474859 838.375 666.8125 C842.4015974 673.50393008 846.63551485 680.02416266 851 686.5 C855.84664626 693.69124747 860.48466269 700.96419162 864.95263672 708.39575195 C868.6720136 714.54892176 872.64219946 720.51053066 876.66503906 726.46826172 C879.7140877 731.00626573 882.61165089 735.59574894 885.375 740.3125 C888.98473398 746.46841544 892.88736695 752.39526352 896.875 758.3125 C901.75919164 765.56047332 906.4393178 772.88689355 910.94116211 780.37744141 C914.75141739 786.68207901 918.80159734 792.80893307 922.94189453 798.90112305 C931 810.80107552 931 810.80107552 931 814 C909.13851853 814.37414954 887.27756645 814.65609256 865.41353035 814.82899475 C855.26092489 814.91142029 845.1103111 815.02373451 834.95898438 815.20703125 C826.10846073 815.36676362 817.25937936 815.46978786 808.40745437 815.50541592 C803.72162313 815.52623869 799.03991673 815.57496482 794.35541153 815.69168091 C789.93972311 815.80080172 785.52982943 815.83369972 781.11292076 815.8097229 C779.49779212 815.81410378 777.88245813 815.84566891 776.26849937 815.9072876 C771.08452416 816.09539626 766.8536225 815.95630203 762 814 C757.91038227 810.0372307 755.40414316 804.99033138 752.95520091 799.91370201 C751.65641616 797.31164525 750.08822347 794.92623687 748.4609375 792.51953125 C747.94797119 791.73594238 747.43500488 790.95235352 746.90649414 790.14501953 C746.40110107 789.37528809 745.89570801 788.60555664 745.375 787.8125 C741.22698312 781.4625238 737.16426735 775.07599512 733.21875 768.59765625 C726.41399782 757.49430823 719.30939979 746.56771261 712.25 735.625 C709.1387458 730.79996807 706.09002676 725.94014958 703.0625 721.0625 C699.82489374 715.84833543 696.49782614 710.7108824 693.0625 705.625 C689.49423357 700.33587243 686.10854213 694.96263325 682.8125 689.5 C677.9157317 681.38606109 672.75952982 673.45924699 667.5546875 665.5402832 C663.22956459 658.93973604 659.06770659 652.26196081 654.99658203 645.50268555 C651.29311391 639.39106792 647.34192754 633.4658966 643.34350586 627.54443359 C639.81178644 622.288536 636.50809051 616.93672511 633.296875 611.48071289 C629.49992234 605.0690562 625.32868549 598.92147479 621.16796875 592.74267578 C619.37894662 590.07335305 617.61993486 587.38581661 615.875 584.6875 C615.31554688 583.82511719 614.75609375 582.96273437 614.1796875 582.07421875 C613 580 613 580 613 578 C458.56 578 304.12 578 145 578 C145 655.88 145 733.76 145 814 C97.15 814 49.3 814 0 814 C0 545.38 0 276.76 0 0 Z M145 118 C145 230.86 145 343.72 145 460 C229.36034957 460.05831929 229.36034957 460.05831929 313.72070312 460.09765625 C324.40005982 460.10131646 335.07941647 460.10507034 345.75877305 460.10905199 C347.2069946 460.10959169 348.65521615 460.11012843 350.1034377 460.11066218 C373.10878233 460.11916534 396.11411699 460.13414975 419.11945563 460.15259444 C442.80318429 460.17154813 466.48690746 460.18379125 490.17064357 460.18782998 C493.53123714 460.18840612 496.89183069 460.18905739 500.25242424 460.18975449 C500.91370697 460.18988933 501.57498971 460.19002418 502.25631131 460.19016311 C513.46323943 460.19265203 524.67014876 460.20324986 535.87706941 460.21583293 C545.89636472 460.22650142 555.9156455 460.22957863 565.93494607 460.22700275 C571.69357984 460.2257366 577.45216404 460.22751202 583.21078873 460.23841095 C613.32310195 460.29250387 643.24370386 459.48564235 673.28177738 457.35684395 C674.32235774 457.28334567 674.32235774 457.28334567 675.38395992 457.20836257 C696.70017024 455.66049878 716.92541375 451.3288172 737 444 C738.24007812 443.58492187 739.48015625 443.16984375 740.7578125 442.7421875 C756.59143926 437.32489883 771.64361872 429.35399153 784 418 C784.98097656 417.14792969 785.96195313 416.29585937 786.97265625 415.41796875 C803.35190157 401.07315441 816.69836053 382.60684918 824 362 C824.43699219 360.78183594 824.87398437 359.56367187 825.32421875 358.30859375 C832.59852296 336.60453346 834.22535353 312.68363084 834.25 289.9375 C834.25200912 288.83174118 834.25200912 288.83174118 834.25405884 287.7036438 C834.24844556 273.31952099 833.06529318 259.24068823 831 245 C830.88785156 244.17242188 830.77570312 243.34484375 830.66015625 242.4921875 C825.93360399 208.06421422 806.90802883 176.76122199 779.25683594 155.67041016 C759.55009188 141.32702956 736.44743715 132.13474654 712.8125 126.625 C711.84199707 126.3986084 710.87149414 126.1722168 709.87158203 125.93896484 C691.55139174 121.93959248 673.01248053 120.32989599 654.32319641 119.33378601 C653.1816209 119.27081393 652.04004539 119.20784185 650.86387668 119.14296152 C626.96463284 117.84318691 603.11233333 117.58310843 579.18334401 117.65180314 C573.31851007 117.66512681 567.45368154 117.66034929 561.58883667 117.65809631 C551.49822231 117.65654578 541.40766748 117.66571737 531.3170681 117.68280983 C520.76869647 117.70066579 510.22034729 117.71214394 499.67196083 117.71536827 C499.00877123 117.71557449 498.34558163 117.71578071 497.66229538 117.71599318 C494.2924086 117.71700859 490.92252181 117.71791259 487.55263499 117.7187738 C463.8671866 117.72502553 440.18176901 117.74509675 416.49633789 117.77368164 C393.52889157 117.80136743 370.56145383 117.82250182 347.59399414 117.83520508 C346.14226172 117.836017 344.69052931 117.83682912 343.23879689 117.83764142 C331.99385548 117.84390075 320.74891385 117.84975199 309.50397217 117.85550511 C254.66928582 117.88365388 199.83467866 117.94404413 145 118 Z " fill="#7D9387" transform="translate(1204,1595)"/>
<path d="M0 0 C5.79399477 0.01709023 11.58757579 0.00690707 17.38155651 -0.01032352 C57.65257553 -0.11168786 97.70685907 1.71922165 137.66992188 6.90673828 C139.03080177 7.08175873 139.03080177 7.08175873 140.41917419 7.26031494 C143.26540219 7.63061987 146.11043036 8.00886659 148.95507812 8.39111328 C149.90731262 8.51897217 150.85954712 8.64683105 151.84063721 8.77856445 C195.91820212 14.76927716 240.35683232 23.87621283 281.859375 40.2019043 C285.13030161 41.45842508 288.43023324 42.5969356 291.74414062 43.73486328 C299.80922422 46.59934313 307.48634551 50.15187858 315.20507812 53.82861328 C315.94119324 54.17770752 316.67730835 54.52680176 317.43572998 54.88647461 C351.14803938 70.90165964 384.66518431 89.56504519 411.95507812 115.39111328 C413.22044648 116.50153857 414.49121872 117.60583914 415.76757812 118.70361328 C431.93376256 132.83259561 431.93376256 132.83259561 438.08789062 140.21142578 C440.09195553 142.55089904 442.18876452 144.77926879 444.30444336 147.01733398 C450.07736646 153.14701575 455.15707436 159.45870343 459.95507812 166.39111328 C460.91141029 167.72848405 461.86990492 169.06431003 462.83007812 170.39892578 C463.87205296 171.85443438 464.91371949 173.31016374 465.95507812 174.76611328 C466.42945312 175.42514648 466.90382812 176.08417969 467.39257812 176.76318359 C475.45156017 188.12350135 482.13050494 200.13690849 488.45507812 212.51611328 C488.82869476 213.24631683 489.2023114 213.97652039 489.58724976 214.72885132 C505.39811096 245.7028612 516.42342267 278.4406429 523.95507812 312.39111328 C524.25551025 313.69435547 524.25551025 313.69435547 524.56201172 315.02392578 C530.60338475 341.52394326 532.57397143 369.72419049 533.51757812 396.82861328 C533.55931152 398.02164062 533.60104492 399.21466797 533.64404297 400.44384766 C533.91188132 408.43308291 534.14248875 416.39764284 533.95507812 424.39111328 C533.93719238 425.26977051 533.91930664 426.14842773 533.90087891 427.05371094 C532.8138757 476.01646116 526.03013703 523.70190411 510.95507812 570.39111328 C510.60606445 571.47634277 510.25705078 572.56157227 509.89746094 573.6796875 C500.27857773 603.09812375 485.99254763 633.20977144 467.95507812 658.39111328 C466.95751271 659.81156712 465.96013234 661.23215092 464.96289062 662.65283203 C453.59197504 678.73474951 440.94118565 693.51653772 426.95507812 707.39111328 C425.76978516 708.59380859 425.76978516 708.59380859 424.56054688 709.82080078 C419.52937081 714.90887222 414.44715524 719.80549549 408.95507812 724.39111328 C408.43268555 724.83261719 407.91029297 725.27412109 407.37207031 725.72900391 C392.51815756 738.24533238 376.7333645 749.5875843 359.95507812 759.39111328 C358.92253906 759.99697266 357.89 760.60283203 356.82617188 761.22705078 C353.90746627 762.91555816 350.97703627 764.57786821 348.03417969 766.22363281 C346.57209747 767.04463765 345.11340165 767.87168801 343.65722656 768.703125 C320.92750673 781.66511092 297.48398966 791.76822995 272.83007812 800.39111328 C271.93213531 800.70658112 271.0341925 801.02204895 270.10903931 801.34707642 C258.54807713 805.38791539 246.94777091 808.89785165 235.06561279 811.86279297 C231.98954557 812.63281055 228.92230857 813.43642068 225.85351562 814.23486328 C187.44518396 824.05501125 148.43706169 829.69385242 109.01757812 833.70361328 C107.93620071 833.81638107 107.93620071 833.81638107 106.83297729 833.931427 C101.21343651 834.50904601 95.58854952 834.97218101 89.95507812 835.39111328 C88.80783264 835.47724884 87.66058716 835.5633844 86.47857666 835.65213013 C62.14012108 837.41191353 37.84932973 837.73615033 13.45361328 837.70678711 C9.30929649 837.70217737 5.16527478 837.70902086 1.02099609 837.72729492 C-21.76710655 837.82663707 -44.45144959 837.49824278 -67.19726562 836.02001953 C-68.14104317 835.95898859 -69.08482071 835.89795765 -70.05719757 835.83507729 C-135.55176566 831.49814301 -203.97702533 822.40931685 -265.39697266 798.40185547 C-267.73204997 797.51053885 -270.06871397 796.69595339 -272.44726562 795.93017578 C-287.21286966 791.17145703 -301.09005217 784.10034155 -315.04492188 777.39111328 C-316.35299805 776.7670459 -316.35299805 776.7670459 -317.6875 776.13037109 C-345.85248873 762.65962714 -372.61133627 744.99937296 -396.04492188 724.39111328 C-396.77839844 723.75689453 -397.511875 723.12267578 -398.26757812 722.46923828 C-400.20536105 720.78956959 -402.12782964 719.09434662 -404.04492188 717.39111328 C-404.85703125 716.67181641 -405.66914063 715.95251953 -406.50585938 715.21142578 C-418.23398852 704.75120249 -418.23398852 704.75120249 -421.04492188 701.39111328 C-421.04492188 700.73111328 -421.04492188 700.07111328 -421.04492188 699.39111328 C-422.03492187 699.06111328 -423.02492187 698.73111328 -424.04492188 698.39111328 C-426.62488349 695.96594936 -428.7903795 693.11599984 -431.04492188 690.39111328 C-431.50189453 689.84503418 -431.95886719 689.29895508 -432.4296875 688.73632812 C-447.00305577 671.29459587 -459.33313527 653.27682782 -470.37451172 633.38574219 C-471.78676255 630.85392858 -473.22911351 628.34450394 -474.68945312 625.84033203 C-499.20686219 582.78610155 -511.37075461 531.2258236 -517.04492188 482.39111328 C-517.19300293 481.16134766 -517.34108398 479.93158203 -517.49365234 478.66455078 C-527.00031469 396.30758783 -518.37864697 309.14735188 -485.09228516 232.82519531 C-484.20524464 230.76370489 -483.35822336 228.69578062 -482.54101562 226.60595703 C-473.38260318 203.66891809 -459.16931097 181.18056807 -443.47216797 162.14208984 C-441.97515053 160.30551628 -440.51790225 158.44200492 -439.06445312 156.57080078 C-431.32926982 146.69930291 -422.8171641 137.84938272 -413.8215332 129.12084961 C-412.32362136 127.66245942 -410.84419016 126.18512288 -409.36914062 124.70361328 C-402.04004051 117.41146661 -394.23553367 110.69158389 -386.04492188 104.39111328 C-385.46613281 103.94509766 -384.88734375 103.49908203 -384.29101562 103.03955078 C-356.65431173 81.81547017 -326.28988443 63.60614988 -294.06976318 50.23260498 C-292.09577078 49.41224528 -290.12478942 48.58498072 -288.15405273 47.75683594 C-278.57088808 43.74988997 -268.93016957 40.0188526 -259.10742188 36.64111328 C-258.3805719 36.39054169 -257.65372192 36.13997009 -256.90484619 35.88180542 C-174.88273707 7.81187506 -86.21677029 -0.25656835 0 0 Z M-82.04492188 121.39111328 C-83.28185791 121.50933441 -84.51879395 121.62755554 -85.79321289 121.74935913 C-92.86965967 122.44599013 -99.92750498 123.25407661 -106.98242188 124.14111328 C-108.50249847 124.32853592 -108.50249847 124.32853592 -110.05328369 124.51974487 C-134.08308508 127.50881773 -157.53237283 132.27674026 -180.85888672 138.80517578 C-183.46067679 139.50255083 -186.07801993 140.12190385 -188.69726562 140.75048828 C-195.51952181 142.44922418 -202.14954462 144.60376659 -208.79492188 146.89111328 C-209.72886276 147.21242218 -209.72886276 147.21242218 -210.68167114 147.54022217 C-228.52339399 153.71800271 -246.0556263 161.2746321 -262.04492188 171.39111328 C-262.74278809 171.83036133 -263.4406543 172.26960938 -264.15966797 172.72216797 C-274.45555867 179.25860922 -283.9422326 186.28544687 -293.04492188 194.39111328 C-293.75519531 194.99181641 -294.46546875 195.59251953 -295.19726562 196.21142578 C-305.17127756 204.65568129 -314.02986673 214.08604238 -322.04492188 224.39111328 C-322.74875 225.25478516 -323.45257813 226.11845703 -324.17773438 227.00830078 C-355.34910951 266.44735248 -368.00722964 318.3398994 -373.04492188 367.39111328 C-373.15078613 368.4047998 -373.25665039 369.41848633 -373.36572266 370.46289062 C-376.58136513 402.77729463 -376.36773587 436.09897727 -373.04492188 468.39111328 C-372.94840332 469.3865918 -372.85188477 470.38207031 -372.75244141 471.40771484 C-367.09192449 528.34749585 -349.0263937 585.24066469 -309.04492188 627.39111328 C-307.87200103 628.76078214 -306.70488879 630.1354566 -305.54492188 631.51611328 C-289.15931335 650.2588163 -266.3217474 664.96866707 -243.94970703 675.47167969 C-242.04121403 676.39290305 -240.17398705 677.36984119 -238.30664062 678.37158203 C-227.01343303 684.37941148 -215.19347572 688.45758728 -203.04492188 692.39111328 C-202.36398468 692.61576263 -201.68304749 692.84041199 -200.98147583 693.0718689 C-189.14044242 696.97432736 -177.26959913 700.22053292 -165.10742188 702.95361328 C-164.26032654 703.14532104 -163.4132312 703.33702881 -162.54046631 703.5345459 C-156.71494338 704.8497276 -150.88240521 706.1301837 -145.04492188 707.39111328 C-143.81660645 707.65843262 -142.58829102 707.92575195 -141.32275391 708.20117188 C-125.25931777 711.61130007 -109.04955325 713.39618968 -92.73242188 715.07861328 C-91.73889709 715.18161743 -90.74537231 715.28462158 -89.72174072 715.39074707 C-82.5019292 716.12924369 -75.27710143 716.78610435 -68.04492188 717.39111328 C-66.91794891 717.48647369 -65.79097595 717.58183411 -64.62985229 717.68008423 C-43.03219625 719.44644987 -21.50276366 719.73574733 0.15698242 719.70678711 C3.87780927 719.70217792 7.59830741 719.70901802 11.3190918 719.72729492 C38.32684334 719.8584667 65.05100825 718.77333333 91.95507812 716.39111328 C93.16892181 716.28407074 94.3827655 716.1770282 95.63339233 716.06674194 C101.98070667 715.49077851 108.31330252 714.82614048 114.64257812 714.07861328 C115.54278687 713.9740683 116.44299561 713.86952332 117.3704834 713.7618103 C134.09236295 711.80168655 150.53497438 709.16734687 166.95507812 705.39111328 C167.73320862 705.21259827 168.51133911 705.03408325 169.31304932 704.85015869 C188.72241143 700.37429799 208.10110647 695.86355096 226.59423828 688.34130859 C229.01700328 687.36618953 231.45603731 686.44858893 233.90429688 685.53955078 C252.72346189 678.449925 270.65583717 669.19264477 286.95507812 657.39111328 C287.61056641 656.92205566 288.26605469 656.45299805 288.94140625 655.96972656 C298.18693744 649.32477488 306.76426332 642.30180446 314.95507812 634.39111328 C315.93784133 633.47151135 316.92091763 632.55224392 317.90429688 631.63330078 C326.28659073 623.66648787 333.14903909 614.71405698 339.95507812 605.39111328 C340.63441406 604.47330078 341.31375 603.55548828 342.01367188 602.60986328 C343.72406962 600.23979712 345.35306373 597.83569657 346.95507812 595.39111328 C347.96054687 593.87710938 347.96054687 593.87710938 348.98632812 592.33251953 C359.0874925 576.62110166 365.9587262 559.02783983 371.89257812 541.39111328 C372.24578125 540.34342773 372.59898438 539.29574219 372.96289062 538.21630859 C377.62992989 523.85309293 380.52155324 509.25789088 382.71044922 494.3371582 C383.07653085 491.85268745 383.45838798 489.37100867 383.84179688 486.88916016 C387.29448987 464.08059667 388.33509971 441.44353745 388.26757812 418.39111328 C388.26575531 417.09473938 388.2639325 415.79836548 388.26205444 414.46270752 C388.21582721 394.90542629 387.62177773 375.77866982 384.95507812 356.39111328 C384.78038715 355.03256238 384.60709671 353.6738308 384.43505859 352.31494141 C382.0476578 333.60386328 378.64145967 315.42241678 372.95507812 297.39111328 C372.66294434 296.46363281 372.37081055 295.53615234 372.06982422 294.58056641 C365.11036813 273.04506563 355.55059592 251.57151308 341.95507812 233.39111328 C341.46040039 232.71435547 340.96572266 232.03759766 340.45605469 231.34033203 C331.76117509 219.46178883 322.54948236 207.71652939 311.18554688 198.25048828 C309.38411794 196.74877169 307.62930992 195.2186663 305.88085938 193.65673828 C294.15521043 183.25722435 281.48088747 174.89861057 267.74316406 167.38427734 C265.97513629 166.40225427 264.23515513 165.38105375 262.49414062 164.35205078 C252.6595134 158.6943425 242.28036069 154.61188503 231.70507812 150.57861328 C230.97623413 150.29998444 230.24739014 150.02135559 229.49645996 149.73428345 C191.73048613 135.36157763 151.90944116 127.84225966 111.89257812 123.20361328 C110.81459961 123.07669098 109.73662109 122.94976868 108.62597656 122.81900024 C76.0389407 119.02290055 43.63196503 118.03465461 10.85351562 118.07543945 C6.84851835 118.08006425 2.84382533 118.07314899 -1.16113281 118.05493164 C-28.26317738 117.93307042 -55.06118298 118.80219982 -82.04492188 121.39111328 Z " fill="#BDC9C1" transform="translate(5126.044921875,1583.60888671875)"/>
<path d="M0 0 C109.10625 -0.04125 218.2125 -0.0825 330.625 -0.125 C365.04893066 -0.14320801 399.47286133 -0.16141602 434.93994141 -0.18017578 C477.04370117 -0.18920898 477.04370117 -0.18920898 496.76742554 -0.19088745 C511.41653668 -0.19286942 526.06562914 -0.20146591 540.71473507 -0.21334685 C555.69127221 -0.22532761 570.66779772 -0.22965621 585.64433946 -0.2268899 C593.75551085 -0.22559032 601.86665022 -0.22727771 609.97781491 -0.23843026 C641.36533907 -0.27996706 672.67599851 -0.25469066 704 2 C706.17803015 2.14645738 708.35607192 2.29274196 710.53412819 2.43881035 C774.44809344 6.75177388 840.92626446 32.60952944 889 75 C889.79277344 75.69351562 890.58554687 76.38703125 891.40234375 77.1015625 C892.72833897 78.26211697 894.05162238 79.42578369 895.37109375 80.59375 C896.7239489 81.7616825 898.13687871 82.85959122 899.5625 83.9375 C902.43852271 86.37105767 904.75606581 89.08598282 907.1953125 91.94921875 C908.80880797 93.78273633 910.47656072 95.44914231 912.25 97.125 C951.64644654 136.17203238 970.3255149 191.47999657 978 245 C978.13712402 245.9398877 978.27424805 246.87977539 978.41552734 247.84814453 C982.56813246 277.8300706 981.36162593 310.13831696 977 340 C976.75056641 341.78567383 976.75056641 341.78567383 976.49609375 343.60742188 C970.48791217 385.64244042 954.76036415 424.56457229 930 459 C929.58363281 459.58894043 929.16726563 460.17788086 928.73828125 460.78466797 C923.22517115 468.57687521 917.01593608 475.51176597 910.47119141 482.42724609 C909.05641319 483.93969237 907.66968689 485.47243473 906.29296875 487.01953125 C905.45378906 487.96183594 904.61460938 488.90414062 903.75 489.875 C903.02296875 490.69742188 902.2959375 491.51984375 901.546875 492.3671875 C898.21820271 495.80817695 894.63418847 498.8880288 891 502 C890.38463379 502.53737793 889.76926758 503.07475586 889.13525391 503.62841797 C871.43167559 519.04155739 851.87683233 531.16404346 830.87451172 541.56323242 C828.83903731 542.58062387 826.81565055 543.6223665 824.80126953 544.6809082 C816.47796359 549.00050092 808.05056399 552.38766855 799.18652344 555.43530273 C796.99821868 556.1881128 794.81531614 556.955162 792.6328125 557.72460938 C778.35717919 562.72479564 764.03530451 566.64014006 749.1875 569.5 C748.41796997 569.64963196 747.64843994 569.79926392 746.85559082 569.95343018 C735.36768417 572.17157919 723.86708613 573.98605787 712.25 575.375 C710.9508667 575.53033203 709.6517334 575.68566406 708.31323242 575.84570312 C691.76419306 577.70966436 675.39848182 578.14476743 658.76525879 578.12025452 C656.54468158 578.12069131 654.32410443 578.1215682 652.10352755 578.12284368 C646.03982851 578.12506743 639.97614732 578.12109655 633.91245055 578.11606562 C628.03336035 578.11217668 622.15427204 578.11302755 616.27518088 578.11374746 C604.25961833 578.11505697 592.24406131 578.11173672 580.22850037 578.10573006 C568.34053012 578.09980248 556.45256217 578.09596198 544.56459045 578.09487724 C543.82399476 578.0948085 543.08339907 578.09473976 542.32036108 578.09466894 C538.55888039 578.09433058 534.7973997 578.09402921 531.03591901 578.09374207 C504.42938064 578.09164456 477.82284527 578.08491532 451.21630859 578.07543945 C425.37679052 578.06624741 399.53727328 578.05918445 373.69775391 578.05493164 C372.07141435 578.054661 370.4450748 578.05439029 368.81873524 578.05411953 C355.60293958 578.05193059 342.38714389 578.04988808 329.1713482 578.04788104 C268.11422929 578.03850309 207.05711822 578.01843017 146 578 C146 655.88 146 733.76 146 814 C97.82 814 49.64 814 0 814 C0 545.38 0 276.76 0 0 Z M146 118 C146 230.86 146 343.72 146 460 C230.36034957 460.05831929 230.36034957 460.05831929 314.72070312 460.09765625 C325.40005982 460.10131646 336.07941647 460.10507034 346.75877305 460.10905199 C348.2069946 460.10959169 349.65521615 460.11012843 351.1034377 460.11066218 C374.10878233 460.11916534 397.11411699 460.13414975 420.11945563 460.15259444 C443.80318429 460.17154813 467.48690746 460.18379125 491.17064357 460.18782998 C494.53123714 460.18840612 497.89183069 460.18905739 501.25242424 460.18975449 C501.91370697 460.18988933 502.57498971 460.19002418 503.25631131 460.19016311 C514.46323943 460.19265203 525.67014876 460.20324986 536.87706941 460.21583293 C546.89636472 460.22650142 556.9156455 460.22957863 566.93494607 460.22700275 C572.69357984 460.2257366 578.45216404 460.22751202 584.21078873 460.23841095 C614.32202418 460.29250194 644.24123413 459.48396643 674.27835941 457.35806465 C674.97162143 457.30922945 675.66488344 457.26039424 676.3791534 457.21007919 C715.5965847 454.36527756 755.74881992 442.96299734 786 417 C786.8765625 416.28585937 787.753125 415.57171875 788.65625 414.8359375 C819.11825614 389.09747029 831.27556971 350.24479765 834.59375 311.75390625 C835.11048191 304.3389956 835.20047246 296.93055684 835.1875 289.5 C835.18656342 288.80035126 835.18562683 288.10070251 835.18466187 287.37985229 C835.07561416 249.57575225 829.19828578 211.15414614 805 181 C803.95392578 179.63101562 803.95392578 179.63101562 802.88671875 178.234375 C794.59943171 167.62907166 785.08686117 159.11706045 773.9375 151.625 C773.23052979 151.1494165 772.52355957 150.67383301 771.79516602 150.18383789 C737.42324034 127.81095292 695.24114119 121.286924 655.07319641 119.27128601 C653.94161113 119.21081149 652.81002586 119.15033697 651.64415012 119.08802988 C627.82118272 117.82478765 604.03442869 117.58333208 580.18334401 117.65180314 C574.31851007 117.66512681 568.45368154 117.66034929 562.58883667 117.65809631 C552.49822231 117.65654578 542.40766748 117.66571737 532.3170681 117.68280983 C521.76869647 117.70066579 511.22034729 117.71214394 500.67196083 117.71536827 C500.00877123 117.71557449 499.34558163 117.71578071 498.66229538 117.71599318 C495.2924086 117.71700859 491.92252181 117.71791259 488.55263499 117.7187738 C464.8671866 117.72502553 441.18176901 117.74509675 417.49633789 117.77368164 C394.52889157 117.80136743 371.56145383 117.82250182 348.59399414 117.83520508 C347.14226172 117.836017 345.69052931 117.83682912 344.23879689 117.83764142 C332.99385548 117.84390075 321.74891385 117.84975199 310.50397217 117.85550511 C255.66928582 117.88365388 200.83467866 117.94404413 146 118 Z " fill="#BDC9C1" transform="translate(3508,1595)"/>
<path d="M0 0 C109.209375 -0.020625 218.41875 -0.04125 330.9375 -0.0625 C365.42757568 -0.071604 399.91765137 -0.08070801 435.45288086 -0.09008789 C477.55187988 -0.09460449 477.55187988 -0.09460449 497.2568512 -0.09544373 C511.93240916 -0.09643712 526.6079625 -0.10074445 541.28351916 -0.10667343 C556.26678174 -0.11264455 571.25004141 -0.11483247 586.23330513 -0.11344495 C595.12856781 -0.11273053 604.02381963 -0.1146864 612.91908029 -0.1208076 C618.81062578 -0.1245846 624.70216415 -0.12465111 630.59371016 -0.12183534 C633.93764569 -0.12033904 637.28154395 -0.12089169 640.62547982 -0.12488258 C662.85067958 -0.14982956 685.04377736 0.29359767 707.1875 2.3125 C707.90524597 2.37724518 708.62299194 2.44199036 709.36248779 2.50869751 C727.44179611 4.1648951 744.76859315 7.5843462 762.375 11.9375 C763.03614807 12.10067719 763.69729614 12.26385437 764.378479 12.43197632 C779.81125101 16.26840016 794.77349882 20.99177911 809.5 27 C810.52898911 27.4185173 810.52898911 27.4185173 811.57876587 27.8454895 C843.24733935 40.80278745 872.33078492 59.2400217 897 83 C897.65935547 83.63212402 898.31871094 84.26424805 898.99804688 84.91552734 C907.98126515 93.57323702 916.34526301 102.34667736 923.7734375 112.37646484 C924.96579188 113.95472054 926.21672655 115.48817979 927.46875 117.01953125 C934.6539369 125.87595625 940.15490938 135.519644 945.63085938 145.50390625 C946.85106826 147.72848108 948.08690771 149.94336173 949.328125 152.15625 C963.5653292 177.80374085 971.15890651 207.2398704 976 236 C976.17789063 237.04687988 976.35578125 238.09375977 976.5390625 239.17236328 C981.79411864 272.07381099 981.76346444 309.17853175 976 342 C975.80664062 343.12776855 975.61328125 344.25553711 975.4140625 345.41748047 C966.31586114 396.86865156 945.66960313 441.11283115 911.31298828 480.48730469 C910.18545181 481.78634075 909.07355903 483.09892615 907.96484375 484.4140625 C904.63803642 488.33954358 901.1495567 491.77892386 897.1875 495.06640625 C895.28005416 496.75245212 893.53119407 498.49316249 891.7578125 500.31640625 C888.05659295 504.04471029 884.07321374 507.22718251 879.875 510.375 C878.75097778 511.22288086 878.75097778 511.22288086 877.60424805 512.08789062 C875.40966601 513.73470536 873.20709255 515.3700032 871 517 C870.44038574 517.41540039 869.88077148 517.83080078 869.30419922 518.25878906 C836.83043027 542.16496627 797.20233166 559.76759458 757.55126953 567.49951172 C754.73386712 568.05220789 751.92857595 568.65291756 749.12109375 569.25390625 C736.77254221 571.82895965 724.39020703 573.72975596 711.875 575.25 C711.1982019 575.33299347 710.52140381 575.41598694 709.82409668 575.50149536 C692.44160735 577.60749354 675.2556181 578.14603061 657.76525879 578.12025452 C655.54468158 578.12069131 653.32410443 578.1215682 651.10352755 578.12284368 C645.03982851 578.12506743 638.97614732 578.12109655 632.91245055 578.11606562 C627.03336035 578.11217668 621.15427204 578.11302755 615.27518088 578.11374746 C603.25961833 578.11505697 591.24406131 578.11173672 579.22850037 578.10573006 C567.34053012 578.09980248 555.45256217 578.09596198 543.56459045 578.09487724 C542.82399476 578.0948085 542.08339907 578.09473976 541.32036108 578.09466894 C537.55888039 578.09433058 533.7973997 578.09402921 530.03591901 578.09374207 C503.42938064 578.09164456 476.82284527 578.08491532 450.21630859 578.07543945 C424.37679052 578.06624741 398.53727328 578.05918445 372.69775391 578.05493164 C371.07141435 578.054661 369.4450748 578.05439029 367.81873524 578.05411953 C354.60293958 578.05193059 341.38714389 578.04988808 328.1713482 578.04788104 C267.11422929 578.03850309 206.05711822 578.01843017 145 578 C145 655.88 145 733.76 145 814 C97.15 814 49.3 814 0 814 C0 545.38 0 276.76 0 0 Z M145 118 C145 230.86 145 343.72 145 460 C229.04296426 460.08751986 229.04296426 460.08751986 313.0859375 460.14648438 C323.74060349 460.15197423 334.3952694 460.15760485 345.04993513 460.16357798 C346.49466793 460.16438754 347.93940074 460.16519265 349.38413355 460.16599327 C372.2986317 460.17872824 395.21310721 460.20118952 418.12759176 460.22889166 C441.73497592 460.25737874 465.34234764 460.2756997 488.9497487 460.28174497 C504.12457571 460.28565168 519.29934771 460.29800421 534.47415534 460.3237494 C544.46925321 460.33982474 554.46431835 460.34435218 564.45942816 460.34050413 C570.19336896 460.33861574 575.92719764 460.34113541 581.66111755 460.35761642 C605.33777277 460.42204242 628.91785225 460.00966684 652.56036377 458.66621399 C653.61424312 458.60787757 654.66812248 458.54954114 655.75393757 458.48943695 C667.34568576 457.83245292 678.87465025 456.88729538 690.40638351 455.52867413 C691.42119457 455.40997117 692.43600562 455.29126821 693.48156853 455.16896819 C736.40330597 449.85527094 777.66930427 430.3505029 805.03515625 396.34765625 C811.22264799 388.22109412 815.80923962 379.28201472 820 370 C820.54527344 368.80890625 821.09054687 367.6178125 821.65234375 366.390625 C840.9250271 321.47007043 839.93622846 258.21743579 822.50366211 212.87109375 C815.65120412 195.99038854 806.31148674 181.50200443 793 169 C788 164 788 164 786.52294922 162.4284668 C782.28954808 158.00717805 777.86246895 154.62055938 772.6875 151.375 C771.99205078 150.92382812 771.29660156 150.47265625 770.58007812 150.0078125 C748.81974452 136.12587649 724.10762052 128.93668624 699 124 C698.08444336 123.81856445 697.16888672 123.63712891 696.22558594 123.45019531 C680.35163773 120.4227219 664.10792223 119.81473239 648 119 C646.76719844 118.93741823 646.76719844 118.93741823 645.50949179 118.87357218 C631.66772611 118.18536094 617.86910492 117.85665512 604.01148987 117.87974548 C602.01173528 117.87930789 600.01198075 117.87842953 598.01222652 117.87715632 C592.59142863 117.87494836 587.17065096 117.87888112 581.74985564 117.88393438 C575.87631273 117.88829261 570.00277076 117.88678868 564.12922668 117.8860321 C553.977537 117.88551025 543.82585378 117.88862155 533.67416573 117.89426994 C523.03959692 117.90018313 512.40503055 117.90404024 501.77046013 117.90512276 C501.10659469 117.9051915 500.44272924 117.90526024 499.75874667 117.90533106 C496.38663116 117.90566944 493.01451565 117.90597081 489.64240014 117.90625793 C465.8238542 117.9083524 442.00531162 117.91507306 418.18676758 117.92456055 C395.06274432 117.93376069 371.93872199 117.94081965 348.81469727 117.94506836 C347.3578917 117.945339 345.90108613 117.94560971 344.44428056 117.94588047 C333.16339034 117.94796635 321.88250008 117.94991699 310.60160983 117.95183504 C255.40107006 117.96125198 200.20053892 117.98137424 145 118 Z " fill="#7D9387" transform="translate(95,1595)"/>
<path d="M0 0 C339.9 0 679.8 0 1030 0 C1030 38.94 1030 77.88 1030 118 C883.81 118 737.62 118 587 118 C587 347.68 587 577.36 587 814 C539.15 814 491.3 814 442 814 C442 584.32 442 354.64 442 118 C296.14 118 150.28 118 0 118 C0 79.06 0 40.12 0 0 Z " fill="#BDC9C1" transform="translate(6887,1595)"/>
<path d="M0 0 C3.37032098 0.82986383 6.74848266 1.60640094 10.13476562 2.36816406 C46.85967665 10.80325247 83.16026172 24.25717215 116.50927734 41.82519531 C118.7750321 43.00684355 121.05771615 44.15204209 123.34179688 45.29785156 C151.44888144 59.52912014 178.569876 77.53957269 201.58007812 99.15722656 C203.80250371 101.21877952 206.04776729 103.21347794 208.34179688 105.19238281 C212.58899136 108.89210308 216.58651742 112.80462386 220.55664062 116.79785156 C221.22501953 117.46236328 221.89339844 118.126875 222.58203125 118.81152344 C227.09049901 123.32875401 231.35119283 128.00680747 235.49414062 132.86035156 C236.21859375 133.70339844 236.94304688 134.54644531 237.68945312 135.41503906 C280.96172869 187.44688458 307.61725738 252.36942887 318.05664062 318.92285156 C318.20788391 319.87823822 318.3591272 320.83362488 318.51495361 321.81796265 C322.43223863 346.70444178 324.95968297 371.65621929 325.49414062 396.86035156 C325.52701172 398.24939697 325.52701172 398.24939697 325.56054688 399.66650391 C326.32400689 436.95516347 326.39092968 482.16998439 314.49414062 517.86035156 C264.66414063 517.86035156 214.83414063 517.86035156 163.49414062 517.86035156 C164.16112002 512.52451642 164.89380609 507.25476065 165.79882812 501.96191406 C174.32155917 451.14436776 177.34726298 399.12075704 170.49414062 347.86035156 C170.3946814 347.10532349 170.29522217 346.35029541 170.19274902 345.5723877 C164.53764822 302.96191135 154.09870904 258.32921306 128.49414062 222.86035156 C127.99188965 222.14363281 127.48963867 221.42691406 126.97216797 220.68847656 C118.95389174 209.24935322 110.39544006 198.71688671 100.49414062 188.86035156 C99.94322754 188.30686035 99.39231445 187.75336914 98.82470703 187.18310547 C84.52558482 172.95149165 68.1117807 161.58488839 50.49414062 151.86035156 C49.8330127 151.48604004 49.17188477 151.11172852 48.49072266 150.72607422 C20.43900041 134.85461461 -11.04337871 124.48526379 -42.50585938 117.86035156 C-43.91226952 117.55656731 -45.31850675 117.25198185 -46.72460938 116.94677734 C-84.84237012 108.69143133 -122.61166549 104.48140113 -161.50585938 101.86035156 C-162.30286255 101.80380402 -163.09986572 101.74725647 -163.92102051 101.68899536 C-180.74349271 100.5196662 -197.61814122 100.67304725 -214.47216797 100.67504883 C-217.88628505 100.6751295 -221.30026625 100.66826773 -224.71435547 100.65454102 C-246.5569409 100.56814747 -268.24201966 101.0786148 -290.03271484 102.61557007 C-293.01991138 102.82610275 -296.00731749 103.0228199 -298.99609375 103.20922852 C-344.73186231 106.09819831 -391.38175902 113.27067684 -434.88378906 127.984375 C-437.32287698 128.79922113 -439.77072211 129.56245025 -442.23242188 130.30566406 C-487.38078317 144.16322878 -530.43527233 172.50678475 -559.50585938 209.86035156 C-560.18648437 210.68921875 -560.86710937 211.51808594 -561.56835938 212.37207031 C-604.38914712 266.29162841 -614.78409875 341.90682583 -614.69335938 408.61035156 C-614.692453 409.86477051 -614.692453 409.86477051 -614.69152832 411.14453125 C-614.62517578 445.38891488 -611.65873186 479.401659 -603.90136719 512.80859375 C-603.50585938 514.86035156 -603.50585938 514.86035156 -603.50585938 517.86035156 C-653.66585937 517.86035156 -703.82585938 517.86035156 -755.50585938 517.86035156 C-761.28310384 486.66323147 -761.28310384 486.66323147 -762.53710938 474.7487793 C-762.76061362 472.62773398 -762.99939549 470.50878979 -763.24023438 468.38964844 C-765.3728872 449.29380403 -765.74712265 430.31293054 -765.75585938 411.11035156 C-765.75630123 410.44590908 -765.75674309 409.7814666 -765.75719833 409.0968895 C-765.76481256 387.21933601 -765.22222636 365.58266614 -762.50585938 343.86035156 C-762.42335938 343.18256653 -762.34085938 342.50478149 -762.25585938 341.80645752 C-759.56625945 319.78988388 -755.06097747 298.32232021 -749.50585938 276.86035156 C-749.18214355 275.60287109 -748.85842773 274.34539063 -748.52490234 273.04980469 C-744.38944034 257.23118947 -739.28714419 242.05547567 -732.85644531 227.02294922 C-731.46884717 223.77368198 -730.11690493 220.51077812 -728.76367188 217.24707031 C-721.70445744 200.52411823 -713.15357242 185.19057021 -703.50585938 169.86035156 C-703.00779785 169.06612793 -702.50973633 168.2719043 -701.99658203 167.45361328 C-693.0546952 153.31589668 -682.42237947 140.50284138 -671.50585938 127.86035156 C-670.98540039 127.2508667 -670.46494141 126.64138184 -669.92871094 126.01342773 C-665.41065875 120.77106316 -660.65126286 115.81304329 -655.75585938 110.92285156 C-654.96236084 110.13015869 -654.1688623 109.33746582 -653.35131836 108.52075195 C-647.66221457 102.89077079 -641.83530445 97.76217732 -635.50585938 92.86035156 C-633.81672455 91.44563454 -632.12929456 90.02888011 -630.44335938 88.61035156 C-614.62866066 75.68335817 -597.4976595 63.87218888 -579.60546875 54.01757812 C-578.07592572 53.17455092 -576.54891801 52.32691887 -575.0234375 51.4765625 C-563.77640769 45.20779316 -552.50212834 39.13213091 -540.74658203 33.86865234 C-538.3700102 32.79922091 -536.00705408 31.70233617 -533.64257812 30.60644531 C-507.5392338 18.70118743 -480.08496636 9.58326985 -452.23583984 2.77978516 C-448.45302006 1.84732677 -444.68522844 0.86576559 -440.91601562 -0.12011719 C-400.95358665 -10.386254 -359.50067799 -15.09817651 -318.50585938 -19.13964844 C-317.24241699 -19.2656543 -315.97897461 -19.39166016 -314.67724609 -19.52148438 C-222.47685527 -28.38008215 -126.12581205 -23.52124091 0 0 Z " fill="#7D9286" transform="translate(3064.505859375,1893.1396484375)"/>
<path d="M0 0 C23.49705526 -0.32825285 46.99376282 -0.57450758 70.49265575 -0.72537041 C81.4057995 -0.79730748 92.31751192 -0.89522964 103.22973633 -1.05615234 C112.75020504 -1.19648288 122.26963648 -1.28619835 131.79111081 -1.31723893 C136.82498678 -1.33536203 141.8558977 -1.37738838 146.88881493 -1.48022079 C186.05163674 -2.24954463 186.05163674 -2.24954463 201.91604042 12.25429916 C205.53552374 15.28628458 209.65642603 17.41999535 213.8125 19.625 C214.56057576 20.0322827 215.30865152 20.43956539 216.07939625 20.85918999 C218.04272146 21.92667127 220.01819348 22.96728334 222 24 C222.89259521 24.47155518 222.89259521 24.47155518 223.80322266 24.95263672 C240.33668084 33.47913364 258.3141058 40.4711377 276.27685547 45.26074219 C279.31268661 46.0848857 282.32866897 46.96775991 285.34765625 47.8515625 C320.77483501 58.00656019 357.40194181 63.22480041 394 67 C394.98331299 67.10256104 395.96662598 67.20512207 396.97973633 67.31079102 C462.19637299 73.39956693 531.08683587 72.93207879 596 64 C597.03235779 63.8582132 597.03235779 63.8582132 598.08557129 63.71356201 C624.99732688 59.98288336 652.14258613 55.58300848 678.21435547 47.82714844 C681.23267506 46.93091121 684.25885046 46.06417441 687.28515625 45.1953125 C708.04526216 39.12861588 727.90793693 31.1682388 747 21 C747.71849121 20.62407715 748.43698242 20.2481543 749.17724609 19.86083984 C751.48069338 18.65144338 753.77277184 17.4226515 756.0625 16.1875 C756.73394043 15.83365234 757.40538086 15.47980469 758.09716797 15.11523438 C761.71085724 13.12749145 764.99211178 11.06386086 768.10021305 8.346591 C778.09716349 -0.17218284 785.72339678 -1.56187408 798.59350586 -1.2487793 C800.40850127 -1.24566866 802.22351048 -1.24743341 804.03849792 -1.25364685 C808.91886343 -1.25677614 813.79619572 -1.19255881 818.67586207 -1.11533332 C823.79258226 -1.0461089 828.90938829 -1.04007153 834.02650452 -1.02705383 C843.69522772 -0.99299767 853.36256675 -0.9029153 863.0306831 -0.79220945 C874.04634439 -0.66883805 885.06207523 -0.6086727 896.07825649 -0.55355966 C918.71960215 -0.43888407 941.35972318 -0.2456672 964 0 C960.39626209 6.36372139 956.36446721 12.12585643 952 18 C951.1006249 19.2454172 950.20223512 20.49154638 949.3046875 21.73828125 C942.64123249 30.90942741 935.39969877 39.20448641 927.54541016 47.36914062 C925.46476825 49.56482592 923.48440789 51.84237868 921.5 54.125 C912.62298703 64.04151449 902.42469383 72.76320487 892 81 C890.85271922 81.91648473 889.70559176 82.8331614 888.55859375 83.75 C881.8636338 89.07999456 875.09600727 94.2106838 868 99 C866.74214771 99.86712978 865.48433901 100.7343228 864.2265625 101.6015625 C827.52257218 126.7030113 786.68561142 145.26555193 744.4375 158.9375 C743.6483017 159.19357025 742.85910339 159.4496405 742.04598999 159.71347046 C726.20711439 164.82470421 710.24709973 168.9685631 694.00109863 172.55395508 C692.03185551 172.99289941 690.06593799 173.44436666 688.10058594 173.90039062 C647.57624678 183.24042159 605.88717696 187.73904442 564.46191406 190.81573486 C562.14334618 190.98927107 559.8255863 191.17119026 557.5078125 191.35498047 C507.08913119 195.26305007 454.72886522 195.14396084 404.31866455 191.18035889 C401.83912034 190.98748587 399.3588973 190.8059194 396.87841797 190.62548828 C352.49535288 187.35431915 308.49229526 181.75920735 265.15930176 171.5065918 C261.97300747 170.75905823 258.77888019 170.0466469 255.5859375 169.328125 C222.58652966 161.70323495 190.67445479 150.27836289 160 136 C159.33526672 135.69084656 158.67053345 135.38169312 157.98565674 135.06317139 C130.06740881 122.02359771 102.98566662 106.4478378 79 87 C77.77496847 86.0231504 76.54968333 85.04661879 75.32421875 84.0703125 C56.36864629 68.90221492 37.85893527 52.27495528 23 33 C22.0673446 31.86426914 21.13086715 30.73167042 20.19140625 29.6015625 C0 5.16155461 0 5.16155461 0 0 Z " fill="#7D9286" transform="translate(2362,1598)"/>
</svg>
